<svg height="512pt" viewBox="0 -104 512.001 512" width="512pt" xmlns="http://www.w3.org/2000/svg"><path d="m323.976562 118.351562h104.636719v23.417969l73.386719-47.640625-73.386719-47.640625v23.414063h-104.636719zm0 0" fill="#f8a2aa"/><path d="m301.222656 294.460938h147.988282c29.152343 0 52.789062-23.636719 52.789062-52.789063 0-29.15625-23.636719-52.792969-52.789062-52.792969h-386.421876c-29.152343 0-52.789062 23.636719-52.789062 52.792969 0 29.152344 23.636719 52.789063 52.789062 52.789063h147.988282" fill="#91def5"/><path d="m63.988281 188.878906h199.460938v-161.515625c0-9.589843-7.769531-17.363281-17.359375-17.363281h-164.742188c-9.585937 0-17.359375 7.773438-17.359375 17.363281zm0 0" fill="#dca98b"/><path d="m196.308594 99.074219-32.589844-17.308594-32.585938 17.308594v-89.074219h65.175782zm0 0" fill="#ffe6c0"/><path d="m92.988281 256.84375h-29c-5.523437 0-10-4.476562-10-10 0-5.519531 4.476563-10 10-10h29c5.523438 0 10 4.480469 10 10 0 5.523438-4.476562 10-10 10zm0 0"/><path d="m181.742188 256.84375h-29c-5.519532 0-10-4.476562-10-10 0-5.519531 4.480468-10 10-10h29c5.523437 0 10 4.480469 10 10 0 5.523438-4.476563 10-10 10zm0 0"/><path d="m270.5 256.84375h-29c-5.523438 0-10-4.476562-10-10 0-5.519531 4.476562-10 10-10h29c5.523438 0 10 4.480469 10 10 0 5.523438-4.476562 10-10 10zm0 0"/><path d="m448.011719 256.84375h-29c-5.523438 0-10-4.476562-10-10 0-5.519531 4.476562-10 10-10h29c5.523437 0 10 4.480469 10 10 0 5.523438-4.476563 10-10 10zm0 0"/><path d="m359.257812 256.84375h-29c-5.523437 0-10-4.476562-10-10 0-5.519531 4.476563-10 10-10h29c5.519532 0 10 4.480469 10 10 0 5.523438-4.480468 10-10 10zm0 0"/><path d="m255.820312 304.460938c-4.167968 0-8-2.699219-9.40625-6.617188-1.410156-3.921875-.1875-8.472656 3.0625-11.109375 3.125-2.539063 7.523438-2.960937 11.078126-1.066406 3.605468 1.921875 5.730468 6.035156 5.175781 10.097656-.671875 4.898437-4.941407 8.695313-9.910157 8.695313zm0 0"/><path d="m449.210938 178.878906h-175.757813v-151.515625c0-15.089843-12.273437-27.363281-27.363281-27.363281h-164.742188c-15.085937 0-27.359375 12.273438-27.359375 27.363281v152.132813c-30.472656 4.292968-53.988281 30.539062-53.988281 62.175781 0 34.621094 28.167969 62.789063 62.789062 62.789063h147.988282c5.523437 0 10-4.476563 10-10 0-5.523438-4.476563-10-10-10h-147.988282c-23.59375 0-42.789062-19.195313-42.789062-42.789063 0-23.597656 19.195312-42.792969 42.789062-42.792969h386.421876c23.59375 0 42.789062 19.195313 42.789062 42.792969 0 23.59375-19.195312 42.789063-42.789062 42.789063h-147.988282c-5.523437 0-10 4.476562-10 10 0 5.523437 4.476563 10 10 10h147.988282c34.621093 0 62.789062-28.167969 62.789062-62.789063 0-34.625-28.167969-62.792969-62.789062-62.792969zm-262.902344-158.878906v62.4375l-17.898438-9.503906c-1.464844-.777344-3.078125-1.167969-4.6875-1.167969-1.613281 0-3.226562.390625-4.691406 1.167969l-17.898438 9.503906v-62.4375zm-112.320313 158.878906v-151.515625c0-4.0625 3.300781-7.363281 7.359375-7.363281h39.785156v79.074219c0 3.507812 1.839844 6.761719 4.847657 8.566406 3.007812 1.8125 6.742187 1.910156 9.84375.261719l27.898437-14.816406 27.894532 14.816406c1.46875.78125 3.082031 1.171875 4.691406 1.171875 1.785156 0 3.570312-.480469 5.152344-1.433594 3.007812-1.804687 4.847656-5.058594 4.847656-8.566406v-79.074219h39.785156c4.058594 0 7.359375 3.300781 7.359375 7.363281v151.515625zm0 0"/><path d="m428.613281 151.769531c-1.636719 0-3.277343-.402343-4.769531-1.210937-3.222656-1.75-5.230469-5.125-5.230469-8.789063v-13.417969h-94.636719c-5.523437 0-10-4.476562-10-10v-48.449218c0-5.523438 4.476563-10 10-10h94.636719v-13.414063c0-3.667969 2.007813-7.039062 5.230469-8.789062 3.21875-1.75 7.140625-1.597657 10.214844.398437l73.386718 47.644532c2.839844 1.84375 4.554688 5 4.554688 8.386718 0 3.386719-1.714844 6.542969-4.554688 8.386719l-73.386718 47.640625c-1.652344 1.070312-3.546875 1.613281-5.445313 1.613281zm-94.636719-43.417969h94.636719c5.523438 0 10 4.480469 10 10v5.003907l45.023438-29.226563-45.023438-29.226562v5c0 5.523437-4.476562 10-10 10h-94.636719zm0 0"/></svg>